<svg fill="none" version="1.1" viewBox="0 0 144 48" xmlns="http://www.w3.org/2000/svg"><path transform="translate(10 26)" d="m3.0227 0c-.31806 0-.65503.023622-1.0109.069741-.35587.04612-.68172.14061-.97754.28684-.29582.14623-.54159.34533-.73843.5973-.19684.25309-.29582.58718-.29582 1 0 .76603.24244 1.2992.72731 1.5984.48488.29808 1.1432.44769 1.9773.44769.50044 0 .94306-.01125 1.3301-.03487.3859-.0225.70729-.06412.9653-.12598v-3.5624c-.15125-.077615-.39813-.14173-.73843-.19573-.34142-.053993-.75401-.08099-1.2389-.08099z" clip-rule="evenodd" fill="white" fill-rule="evenodd" style="fill:#dc4c00"/><path d="m38.57 31.542c-.3423-.5691-.7385-1.1501-1.1861-1.743-.4488-.593-.9167-1.162-1.4062-1.7073-.4895-.544-.9874-1.0439-1.4925-1.4984-.505-.4558-.9862-.8376-1.4434-1.1466v6.0953h-2.2739v-18.53l2.2739-.389v11.556c.3914-.3901.8235-.8196 1.2974-1.2921.4727-.4712.9371-.9508 1.3931-1.4376.4572-.4879.8893-.9556 1.2962-1.403.4081-.4462.7588-.8411 1.052-1.1823h2.6665c-.3758.4068-.7827.853-1.2231 1.341-.4405.4879-.8965.9795-1.3692 1.4746-.474.4963-.9503.9926-1.4314 1.4877-.4811.4963-.9335.964-1.3572 1.4019.4883.3746 1.0065.8375 1.5535 1.3899.5457.5523 1.0831 1.1501 1.6133 1.7919.5302.6419 1.0317 1.2921 1.5044 1.9507.4728.6585.8725 1.2717 1.1992 1.8408h-2.6665zm-11.508-.6095c-.8725.6013-2.1148.9019-3.7293.9019-1.125 0-2.0059-.093-2.6414-.2803-.6367-.1862-1.0688-.3293-1.2962-.4272l.4153-1.9494c.2597.0978.6762.2434 1.2471.439.5709.1945 1.3297.2923 2.2752.2923.9287 0 1.6181-.1217 2.0669-.3662.4476-.2434.6726-.6335.6726-1.1704 0-.5524-.2202-.9914-.6606-1.316-.4405-.3257-1.1657-.6907-2.1771-1.0976-.4895-.1944-.9586-.3937-1.4062-.5977-.4488-.2028-.8366-.4426-1.1622-.7182-.3255-.2768-.5864-.6096-.7827-.9998-.1951-.3901-.2932-.8697-.2932-1.4388 0-1.1215.4153-2.0115 1.2471-2.67.8318-.6586 1.9652-.9879 3.4002-.9879.3578 0 .7169.0215 1.0759.0621.3591.0405.693.0882 1.003.1455s.5828.1181.8186.1837c.237.0645.4201.1217.5505.1706l-.4153 1.9495c-.2453-.1289-.6283-.2637-1.1489-.4021-.523-.1372-1.1502-.2064-1.8838-.2064-.6355 0-1.1909.1253-1.6636.377-.4728.2518-.7097.6467-.7097 1.1824 0 .2767.0526.5213.1591.7325.1066.2112.2693.402.4896.5726.2202.1707.493.3293.8198.4749.3255.1467.7169.3006 1.1741.4641.602.2279 1.1405.451 1.6145.6705.4715.2195.8761.4748 1.21.7671s.5912.6466.7707 1.0606c.1784.4152.2693.9234.2693 1.5247 0 1.1704-.4368 2.0557-1.3093 2.657zm-9.9421.3901c-.1951.0334-.4679.0775-.8186.1348s-.7468.1098-1.1873.1587c-.4392.0477-.9167.093-1.4302.1336-.5134.0406-1.0233.0609-1.5283.0609-.7181 0-1.3788-.0728-1.982-.2196-.60317-.1467-1.125-.3782-1.5654-.6955-.43923-.3162-.78153-.7349-1.0269-1.2551-.24415-.5202-.36742-1.1465-.36742-1.8767 0-.6991.14242-1.3004.42846-1.8051.28485-.5034.67262-.9103 1.1621-1.2193.48951-.3078 1.0592-.5356 1.7126-.6824.6511-.1455 1.3357-.2195 2.0538-.2195.2286 0 .4644.0119.7097.037.2442.0238.4763.0572.6966.0978.2202.0406.4117.0764.5744.1098.1628.0322.2777.056.3423.0728v-.6348c0-.3734-.0407-.7432-.1221-1.1083-.0813-.3663-.2285-.6908-.4392-.9759-.213-.284-.5015-.5118-.8689-.6824s-.8437-.2565-1.4302-.2565c-.7504 0-1.4075.0536-1.97.1586-.56248.1062-.98257.216-1.259.3293l-.26928-1.8767c.29322-.13.78272-.2565 1.4673-.3782.6858-.1216 1.4266-.1837 2.2261-.1837.9132 0 1.6827.1193 2.3111.3544.6271.2362 1.1334.569 1.5163.9997.383.4307.6559.9425.8199 1.5355.1627.5941.2441 1.2479.2441 1.9626v7.9242zm30.879-7.3994c0-13.212-10.745-23.923-24-23.923s-24 10.711-24 23.923c0 13.213 10.745 23.924 24 23.924 4.3541 0 8.4341-1.1608 11.955-3.1819l12.045 3.3346-3.0244-12.452c1.9233-3.4419 3.0244-7.404 3.0244-11.625z" clip-rule="evenodd" fill="white" fill-rule="evenodd" style="fill:#dc4c00"/><path transform="translate(53 19)" d="m10 12.364c-.50798.1306-1.1779.2696-2.0121.417-.83304.1461-1.7977.2192-2.8929.2192-.95188 0-1.7535-.1426-2.4048-.4277s-1.1744-.6889-1.5717-1.2124c-.39613-.5212-.68158-1.1382-.85634-1.8486-.17476-.70924-.26215-1.4964-.26215-2.3626v-7.1487h2.2137v6.6587c0 1.5515.23884 2.6609.71537 3.3306.47535.66969 1.2769 1.0028 2.4048 1.0028.23768 0 .48351-.0072.7375-.024.25399-.0156.49167-.0359.71421-.0611.22253-.0239.42409-.0491.60701-.0731.18292-.0239.31341-.0527.3938-.0862v-10.748h2.2137v12.364z" clip-rule="evenodd" fill="white" fill-rule="evenodd" style="fill:#dc4c00"/><path transform="translate(67 13)" d="m2.2332 16.758c.22449.0649.54066.1239.94968.1806.40784.0566.91559.0849 1.5244.0849 1.2012 0 2.1614-.3976 2.8831-1.1941.71931-.7952 1.0801-1.9244 1.0801-3.3875 0-.643-.06465-1.2459-.19276-1.8088-.12694-.5616-.33615-1.0489-.6241-1.4583-.28796-.40943-.66054-.73154-1.1166-.96516-.45603-.23245-1.0049-.34926-1.6455-.34926-.60883 0-1.1695.10502-1.6819.31386s-.90501.42594-1.1765.65013v7.9336zm-1e-5-10.03c.27151-.17698.68523-.36223 1.2376-.55573.55123-.19233 1.1883-.28908 1.9088-.28908.89678 0 1.6937.16047 2.3906.48258.6958.32212 1.2846.77166 1.7654 1.3498.48067.57934.84387 1.2708 1.0931 2.0743.248.80353.3714 1.6872.3714 2.6524 0 1.0123-.1481 1.9256-.4431 2.7362-.2974.8129-.71814 1.4996-1.2623 2.0625-.54418.5628-1.2.9958-1.9687 1.3014s-1.6337.4578-2.5952.4578c-1.0402 0-1.9605-.072-2.762-.2159-.8004-.1452-1.4562-.2903-1.9687-.4342v-17.964l2.2331-.38583v6.7278z" clip-rule="evenodd" fill="white" fill-rule="evenodd" style="fill:#dc4c00"/><path transform="translate(80 19)" d="m10 12.364c-.50798.1306-1.1779.2696-2.0121.417-.83304.1461-1.7977.2192-2.8929.2192-.95188 0-1.7535-.1426-2.4048-.4277s-1.1744-.6889-1.5717-1.2124c-.39613-.5212-.68158-1.1382-.85634-1.8486-.17476-.70924-.26215-1.4964-.26215-2.3626v-7.1487h2.2137v6.6587c0 1.5515.23884 2.6609.71537 3.3306.47535.66969 1.2769 1.0028 2.4048 1.0028.23768 0 .48351-.0072.7375-.024.25399-.0156.49167-.0359.71421-.0611.22253-.0239.42409-.0491.60701-.0731.18292-.0239.31341-.0527.3938-.0862v-10.748h2.2137v12.364z" clip-rule="evenodd" fill="white" fill-rule="evenodd" style="fill:#dc4c00"/><path transform="translate(94 19)" d="m0 .63616c.50798-.13059 1.1826-.26956 2.0238-.41572.8412-.14736 1.8094-.22044 2.9046-.22044.9845 0 1.8012.14257 2.4525.4277.65129.28633 1.1709.68528 1.5601 1.2004.38798.51397.66294 1.1298.82139 1.8486.15845.71763.23768 1.5095.23768 2.3745v7.1487h-2.2137v-6.6587c0-.78352-.05243-1.4532-.15496-2.0079-.10369-.55469-.27379-1.004-.51264-1.3466-.23768-.34264-.55575-.59184-.95188-.74758-.3973-.15455-.88897-.23122-1.4762-.23122-.23768 0-.48468.00718-.73751.02396-.25515.01677-.49749.03594-.72702.0611-.23068.02396-.43691.05271-.61866.08626-.18292.03234-.31341.0563-.3938.07308v10.748h-2.2137v-12.364z" clip-rule="evenodd" fill="white" fill-rule="evenodd" style="fill:#dc4c00"/><path transform="translate(107 15)" d="m2.3994 3.9549h5.0841v1.9161h-5.0841v5.8963c0 .6383.05177 1.1672.15533 1.5843.10355.4184.25761.7453.46472.9822.20584.238.46345.4063.77411.5036.30939.0986.67056.1479 1.0835.1479.72234 0 1.3032-.0781 1.7414-.2332.43946-.1551.74507-.2657.91681-.3318l.46472 1.8909c-.2412.1154-.66298.2585-1.2641.4304-.60237.1719-1.2906.2584-2.066.2584-.91176 0-1.6644-.1106-2.2579-.3318-.59227-.2212-1.0709-.5529-1.432-.9953-.36117-.4424-.615-.9857-.76148-1.6337-.14649-.6467-.21847-1.3956-.21847-2.2479v-11.398l2.3994-.39308v3.9549z" clip-rule="evenodd" fill="white" fill-rule="evenodd" style="fill:#dc4c00"/><path transform="translate(117 19)" d="m10 12.364c-.50798.1306-1.1779.2696-2.0121.417-.83304.1461-1.7977.2192-2.8929.2192-.95188 0-1.7535-.1426-2.4048-.4277s-1.1744-.6889-1.5717-1.2124c-.39613-.5212-.68158-1.1382-.85634-1.8486-.17476-.70924-.26215-1.4964-.26215-2.3626v-7.1487h2.2137v6.6587c0 1.5515.23884 2.6609.71537 3.3306.47535.66969 1.2769 1.0028 2.4048 1.0028.23768 0 .48351-.0072.7375-.024.25399-.0156.49167-.0359.71421-.0611.22253-.0239.42409-.0491.60701-.0731.18292-.0239.31341-.0527.3938-.0862v-10.748h2.2137v12.364z" clip-rule="evenodd" fill="white" fill-rule="evenodd" style="fill:#dc4c00"/><mask id="mask0" x="128" y="10" width="16" height="16" mask-type="alpha" maskUnits="userSpaceOnUse"><path transform="translate(128.74 10.399)" d="M0 0H15.1993V15.4055H0V0Z" clip-rule="evenodd" fill="white" fill-rule="evenodd"/></mask><g mask="url(#mask0)" style="fill:#dc4c00"><path transform="translate(128.74 10.399)" d="m11.131 11.001c-.238-.1268-.5076-.1982-.7942-.1982-.90219 0-1.6465.7114-1.7133 1.6099-.30843.064-.62778.0972-.95321.0972-.748 0-1.4572-.176-2.0898-.4886l.97022-1.7145c.34364.1502.7225.2339 1.1196.2339 1.4584 0 2.6653-1.1262 2.8183-2.5637l1.9477.03077c-.0801 1.1557-.5622 2.2006-1.3053 2.9933zm-.7942 2.7939c-.67878 0-1.2325-.5612-1.2325-1.2492 0-.6893.55371-1.2505 1.2325-1.2505.68 0 1.2325.5612 1.2325 1.2505 0 .688-.5525 1.2492-1.2325 1.2492zm-7.1946-4.5809c.45293-.31508.75285-.84308.75285-1.44 0-.62031-.323-1.168-.80871-1.4769.306-1.0474.95443-1.9495 1.8117-2.5723l1.0261 1.68c-.663.52676-1.0904 1.3452-1.0904 2.2622 0 .90831.42014 1.7206 1.0734 2.2486l-.96415 1.7243c-.83057-.587-1.4705-1.435-1.8008-2.4258zm-.96655-.18962c-.67878 0-1.2325-.56246-1.2325-1.2505s.55372-1.2492 1.2325-1.2492c.68 0 1.2337.56123 1.2337 1.2492s-.55372 1.2505-1.2337 1.2505zm5.4946-6.2018c.30357 0 .60107.02954.89007.08493-.00485.05415-.0085.10707-.0085.16246 0 .95877.77229 1.7415 1.7194 1.7415.3716 0 .7153-.12062.9982-.32493.6533.75939 1.0783 1.7255 1.1633 2.7877l-1.9465.06153c-.1627-1.4277-1.3649-2.5428-2.816-2.5428-.41043 0-.80143.08862-1.1536.24862l-.97386-1.7095c.64115-.32615 1.3636-.50954 2.1274-.50954zm2.601-1.003c.6788 0 1.2325.56246 1.2325 1.2505s-.5537 1.2492-1.2325 1.2492c-.67874 0-1.2337-.56123-1.2337-1.2492s.55493-1.2505 1.2337-1.2505zm-2.6714-1.8191c-4.1978 0-7.6002 3.4486-7.6002 7.7022 0 4.2536 3.4024 7.7034 7.6002 7.7034 4.1978 0 7.6002-3.4498 7.6002-7.7034 0-4.2535-3.4024-7.7022-7.6002-7.7022z" clip-rule="evenodd" fill="white" fill-rule="evenodd" style="fill:#dc4c00"/></g></svg>
