<svg version="1.1" viewBox="0 0 54.534 21.225" xmlns="http://www.w3.org/2000/svg"><g transform="translate(225.35 28.288)"><path d="m-199.08-11.318c1.1571 0 2.1158-.32812 2.8756-.98435.7598-.65624 1.1397-1.5145 1.1397-2.5742 0-.85208-.25019-1.5447-.75057-2.0769-.50038-.53319-1.1674-.84849-2.0015-.94642v-.03435c.66649-.21943 1.1889-.58908 1.5683-1.1094.37939-.51986.56857-1.1325.56857-1.8375 0-.84388-.31377-1.5288-.94078-2.0548-.62752-.52601-1.476-.78902-2.547-.78902h-3.5222v12.407h3.6098zm-.49217-11.09c1.5786 0 2.3681.60394 2.3681 1.8118 0 .69981-.22661 1.2417-.68034 1.6262-.45321.38451-1.0761.57677-1.8687.57677h-1.4811v-4.0148h1.6621zm.001 5.3232c1.9882 0 2.9823.73006 2.9823 2.1897 0 .70186-.2343 1.2545-.70238 1.657-.4686.40194-1.1279.60292-1.9779.60292h-1.9651v-4.4496h1.6632zm8.203-5.6267c.182-.17944.27326-.3963.27326-.6506 0-.26557-.0913-.48654-.27326-.66239-.18149-.17636-.40246-.26455-.66239-.26455-.25429 0-.47116.08818-.65008.26455-.17893.17585-.26814.39682-.26814.66239 0 .26608.0892.48551.26814.65931.17892.17277.39579.25942.65008.25942.25993 0 .4809-.08921.66239-.26813zm.0446 2.5239h-1.4201v8.8694h1.4201v-8.8694zm10.254 3.4488c0-1.1828-.25685-2.0877-.77107-2.7142-.51474-.6265-1.2571-.93975-2.2281-.93975-1.2715 0-2.2425.55985-2.9131 1.6801h-.0349v-1.475h-1.4201v8.8694h1.4201v-5.0561c0-.81414.23276-1.4878.69777-2.022.46551-.53422 1.0541-.80132 1.7646-.80132 1.3766 0 2.0646.94129 2.0646 2.8234v5.0561h1.4201v-5.4206zm10.254-3.4488h-1.4201v1.232h-.0343c-.57831-.95821-1.4663-1.4371-2.6634-1.4371-1.2612 0-2.2548.4445-2.9813 1.333-.72545.88899-1.0884 2.0866-1.0884 3.5929 0 1.3268.33683 2.3845 1.011 3.172.67367.788 1.5632 1.1817 2.6675 1.1817 1.3591 0 2.3773-.566 3.0546-1.6975h.0343v.9659c0 2.3107-1.0951 3.4663-3.2842 3.4663-.90951 0-1.8657-.27941-2.868-.83773v1.4253c.82183.41681 1.7826.62547 2.8828.62547 3.1264 0 4.6895-1.6257 4.6895-4.8767v-8.1455zm-2.1707 7.031c-.50038.56549-1.15.84849-1.9492.84849-.78646 0-1.4186-.29582-1.8959-.88694-.47731-.59164-.71622-1.3807-.71622-2.3671 0-1.1484.24865-2.041.74647-2.6788.49781-.63778 1.1864-.95667 2.0661-.95667.7111 0 1.3058.25122 1.7831.75313s.71622 1.1048.71622 1.8088v1.3068c0 .88233-.25019 1.6068-.75057 2.1722zm-52.364-15.131v18.354l3.8964 2.871 11.894-6.2547v-4.6142l-9.5359-2.9223 1.7431 4.1527 2.7172 1.333-6.306 3.435v-15.124l-4.4091-1.2304z" style="fill:#01aa9a"/></g></svg>
