<svg version="1.1" viewBox="0 0 41.646 8.2845" xmlns="http://www.w3.org/2000/svg" xmlns:xlink="http://www.w3.org/1999/xlink"><defs><clipPath id="a"><path d="m178.68 78.824c0 28.316-23.035 51.354-51.354 51.354-28.313 0-51.348-23.04-51.348-51.354s23.036-51.35 51.348-51.35c28.318 0 51.354 23.036 51.354 51.35z"/></clipPath><linearGradient id="c" x1="105.32" x2="113.89" y1="60.979" y2="60.979" gradientUnits="userSpaceOnUse" xlink:href="#b"/><linearGradient id="b"><stop stop-color="#6176b9" offset=".006"/><stop stop-color="#394a9f" offset=".691"/></linearGradient><linearGradient id="d" x1="132.27" x2="140.08" y1="58.371" y2="58.371" gradientUnits="userSpaceOnUse" xlink:href="#b"/></defs><g transform="translate(167.97 -57.655)"><path d="m-157.91 63.693v-3.7929h1.3738c1.3085 0 1.9039.96093 1.9039 1.8547 0 .96429-.58873 1.9364-1.9039 1.9364zm.43678-.43678h.93704c1.0136 0 1.4672-.75598 1.4672-1.5056 0-.68878-.45919-1.4291-1.4672-1.4291h-.93704zm4.5721.48046c-.70186 0-1.1558-.48345-1.1558-1.232v-1.4724h.40953v1.4672c0 .53908.31359.86088.83885.86088.49278-.0052.85005-.3834.85005-.89896v-1.4287h.40953v2.6607h-.37219l-.0236-.46292-.0635.07989c-.22026.27738-.52117.42111-.89336.4267zm3.3498.0057c-.69363 0-1.3906-.42708-1.3906-1.3798 0-.82504.55887-1.3794 1.3906-1.3794a1.3328 1.3328 0 01.95084.38564l-.26132.26692c-.18106-.16912-.42858-.26133-.68243-.26133-.58089 0-.98668.40804-.98668.99191 0 .68542.49277.99304.98109.99304.27475 0 .52413-.09819.70483-.27738l.26767.26767c-.26879.26244-.59808.39572-.97811.39572zm3.7407-.04928h-.51966l-1.3003-1.3003v1.3003h-.40431v-3.7892h.40431v2.2903l1.1368-1.1648h.53011l-1.2544 1.2544 1.4074 1.4029zm.504 0v-3.7929h1.3738c1.3085 0 1.9047.96093 1.9047 1.8547 0 .96429-.58799 1.9364-1.9047 1.9364zm.43678-.43679h.93704c1.0136 0 1.4672-.75598 1.4672-1.5056 0-.68878-.45919-1.4291-1.4672-1.4291h-.93704zm4.572.48046c-.70183 0-1.1554-.48345-1.1554-1.232v-1.4724h.40953v1.4672c0 .53908.31359.86088.83848.86088.49279-.0052.85006-.3834.85006-.89896v-1.4287h.40954v2.6607h-.37295l-.0232-.46292-.0635.07989c-.22027.27738-.52117.42111-.89299.42671zm3.3506.0057c-.69363 0-1.3906-.42708-1.3906-1.3798 0-.82504.55886-1.3794 1.3906-1.3794a1.3328 1.3328 0 01.95085.38564l-.26131.26692c-.18144-.16911-.42859-.26132-.68318-.26132-.58127 0-.98632.40804-.98632.99191 0 .68542.49278.99304.98108.99304.2744 0 .52416-.09819.70484-.27738l.25983.26021-.0141.01493.007.0075c-.26657.25274-.59059.38154-.9643.38154zm3.7407-.04928h-.52264l-1.3006-1.2999v1.3003h-.40394v-3.7874h.40394v2.2903l1.1368-1.1648h.5301l-1.2517 1.2503 1.4067 1.4029zm2.1455.07093c-1.4578 0-1.9749-1.0404-1.9749-1.9316-.003-.58051.19411-1.0983.5525-1.4597.35353-.3554.84372-.54318 1.4171-.54318.51406-.0019 1.0087.19786 1.3776.5555l-.24713.2882a1.7173 1.7173 0 00-1.13-.43977c-1.0565 0-1.5381.82877-1.5381 1.5978 0 .75672.47861 1.522 1.5493 1.522.38976 0 .75337-.13328 1.0502-.38826l.015-.01114v-.93442h-1.1916v-.38228h1.584v1.4869c-.40917.43156-.88589.63838-1.4645.63838zm3.3506-.0224c-.79964 0-1.3798-.5779-1.3798-1.3738 0-.80861.58127-1.3962 1.3798-1.3962.81758 0 1.385.57379 1.385 1.3962 0 .79629-.58238 1.3738-1.385 1.3738zm.006-2.3986c-.57493 0-.97511.42185-.97511 1.0244 0 .57491.40803.99229.97062.99229.57044 0 .97512-.40804.98034-.99191 0-.59358-.4099-1.0248-.97548-1.0248z" style="fill:#999999;stroke-width:.37332"/><g transform="matrix(.069038 0 0 .069038 -172.62 56.345)"><circle cx="127.33" cy="78.966" r="51.15" style="fill:#de5833"/><g clip-path="url(#a)"><path d="m148.29 155.16c-1.8-8.285-12.262-27.04-16.23-34.97s-7.938-19.1-6.13-26.322c.328-1.312-3.436-11.308-2.354-12.015 8.416-5.5 10.632.6 14.002-1.862 1.734-1.273 4.1 1.047 4.7-1.06 2.158-7.567-3.006-20.76-8.77-26.526-1.885-1.88-4.77-3.06-8.03-3.687-1.254-1.713-3.275-3.36-6.138-4.88-3.188-1.697-10.12-3.938-13.717-4.535-2.492-.4-3.055.287-4.12.46.992.088 5.7 2.414 6.615 2.55-.916.62-3.607-.028-5.324.742-.865.392-1.512 1.877-1.506 2.58 4.9-.496 12.574-.016 17.1 2-3.602.4-9.08.867-11.436 2.105-6.848 3.608-9.873 12.035-8.07 22.133 1.804 10.075 9.738 46.85 12.262 59.13 2.525 12.264-5.408 20.2-10.455 22.354l5.408.363-1.8 3.967c6.484.72 13.695-1.44 13.695-1.44-1.438 3.965-11.176 5.412-11.176 5.412s4.7 1.438 12.258-1.447l12.263-4.688 3.604 9.373 6.854-6.847 2.885 7.2c.014-.001 5.424-1.808 3.62-10.103z" style="fill:#d5d7d8"/><path d="m150.47 153.48c-1.795-8.3-12.256-27.043-16.228-34.98s-7.935-19.112-6.13-26.32c.335-1.3.34-6.668 1.43-7.38 8.4-5.494 7.812-.184 11.187-2.645 1.74-1.27 3.133-2.806 3.738-4.912 2.164-7.572-3.006-20.76-8.773-26.53-1.88-1.88-4.768-3.062-8.023-3.686-1.252-1.718-3.27-3.36-6.13-4.882-5.4-2.862-12.074-4.006-18.266-2.883 1 .1 3.256 2.138 4.168 2.273-1.38.936-5.053.815-5.03 2.896 4.916-.492 10.303.285 14.834 2.297-3.602.4-6.955 1.3-9.3 2.543-6.854 3.603-8.656 10.812-6.854 20.914 1.807 10.097 9.742 46.873 12.256 59.126 2.527 12.26-5.402 20.188-10.45 22.354l5.408.36-1.8 3.973c6.484.72 13.695-1.44 13.695-1.44-1.438 3.974-11.176 5.406-11.176 5.406s4.686 1.44 12.258-1.445l12.27-4.688 3.604 9.373 6.852-6.85 2.9 7.215c-.016.007 5.388-1.797 3.58-10.088z" style="fill:#ffffff"/><path d="m109.02 70.69c0-2.093 1.693-3.787 3.79-3.787 2.1 0 3.785 1.694 3.785 3.787s-1.695 3.786-3.785 3.786c-2.096.001-3.79-1.692-3.79-3.786z" style="fill:#2d4f8e"/><path d="m113.51 69.43a.98.98 0 01.98-.983c.543 0 .984.438.984.983s-.44.984-.984.984c-.538.001-.98-.44-.98-.984z" style="fill:#ffffff"/><path d="m134.87 68.445c0-1.793 1.46-3.25 3.252-3.25 1.8 0 3.256 1.457 3.256 3.25 0 1.8-1.455 3.258-3.256 3.258a3.26 3.26 0 01-3.252-3.258z" style="fill:#2d4f8e"/><path d="m138.72 67.363c0-.463.38-.843.838-.843a.84.84 0 01.846.843c0 .47-.367.842-.846.842a.84.84 0 01-.838-.842z" style="fill:#ffffff"/><path d="m113.89 59.718s-2.854-1.3-5.63.453-2.668 3.523-2.668 3.523-1.473-3.283 2.453-4.892 5.844.916 5.844.916z" style="fill:url(#c)"/><path d="m140.08 59.458s-2.05-1.172-3.643-1.152c-3.27.043-4.162 1.488-4.162 1.488s.55-3.445 4.732-2.754c2.268.377 3.073 2.418 3.073 2.418z" style="fill:url(#d)"/></g><path d="m124.4 85.295c.38-2.3 6.3-6.625 10.5-6.887 4.2-.265 5.5-.205 9-1.043s12.535-3.088 15.033-4.242c2.504-1.156 13.104.572 5.63 4.738-3.232 1.8-11.943 5.13-18.172 6.987-6.22 1.86-10-1.776-12.06 1.28-1.646 2.432-.334 5.762 7.1 6.453 10.037.93 19.66-4.52 20.72-1.625s-8.625 6.508-14.525 6.623c-5.893.1-17.77-3.896-19.555-5.137s-4.165-4.13-3.67-7.148z" style="fill:#fdd20a"/><path d="m128.94 115.59s-14.102-7.52-14.332-4.47c-.238 3.056 0 15.5 1.643 16.45s13.396-6.108 13.396-6.108zm5.403-.474s9.635-7.285 11.754-6.815c2.1.48 2.582 15.5.7 16.23-1.88.7-12.908-3.813-12.908-3.813z" style="fill:#65bc46"/><path d="m125.53 116.4c0 4.932-.7 7.05 1.4 7.52s6.104 0 7.518-.938.232-7.28-.232-8.465c-.477-1.174-8.696-.232-8.696 1.884z" style="fill:#43a244"/><path d="m126.43 115.29c0 4.933-.707 7.05 1.4 7.52 2.106.48 6.104 0 7.52-.938 1.4-.94.23-7.28-.236-8.466-.473-1.173-8.692-.227-8.692 1.885z" style="fill:#65bc46"/><circle cx="127.33" cy="78.965" r="57.5" style="fill:none;stroke-width:5;stroke:#de5833"/></g></g></svg>
