<svg version="1.1" viewBox="0 0 20.348 7.8089" xmlns="http://www.w3.org/2000/svg"><g transform="translate(-415.43 -6.5122)"><path d="m425.13 6.5122c-2.1036 0-3.8069 1.7034-3.8069 3.8069 0 2.1036 1.7034 3.8069 3.8069 3.8069 2.1036 0 3.8069-1.7034 3.8069-3.8069 0-2.1036-1.7034-3.8069-3.8069-3.8069zm0 7.1727c-1.8572 0-3.3558-1.5084-3.3558-3.3656 0-1.8572 1.4981-3.3656 3.3558-3.3656 1.8577 0 3.3558 1.5084 3.3558 3.3656 0 1.8572-1.4981 3.3656-3.3558 3.3656z" style="fill:#dc7e58;stroke-width:.1163"/><path d="m425.18 7.5589c-1.5499 0-2.7911 1.2622-2.7911 2.7911a2.7806 2.7806 0 002.791 2.7911c1.5392 0 2.7804-1.2519 2.7804-2.7911 0-1.5392-1.2416-2.7911-2.7804-2.7911z" style="fill:#36acb8;stroke-width:.1163"/><path d="m416.56 14.064-1.1288-4.71 2.0214-.48228.17445.71824-1.3134.31818.30784 1.2827.9542-.22561.17445.71824-.95421.22561.30784 1.2827 1.3133-.31818.17445.71836-2.0317.47216zm3.4889-.68754c-.31807.05117-.60544-.01023-.86175-.19491-.25632-.18468-.41053-.43099-.47216-.74894l-.44123-2.6062c-.0512-.31807.0102-.60544.19491-.86198.18468-.25655.44123-.42076.74895-.47216.31807-.05117.60543.010234.86198.19491.25655.18468.41052.44123.46169.74894l.0923.54391-.74894.12304-.0925-.56427c-.0205-.11281-.0714-.20526-.17444-.27713-.0925-.071406-.19491-.092455-.31807-.071406-.11339.020468-.20526.071406-.26678.17444-.0616.092455-.0925.19491-.0714.31807l.4617 2.6269c.0209.11281.0714.20526.16397.26678.0926.06152.19492.09245.30784.07141.11292-.02105.20526-.07141.27702-.16398.0718-.09257.0924-.19503.0714-.30784l-.11281-.65672.74895-.12327.1128.66696c.0512.31807-.0102.60544-.19491.86198-.19502.24631-.44134.40029-.74917.45146zm11.554-1.2005c-.0411.33865-.17445.60544-.38994.81058-.14363.14374-.32831.22585-.5438.2669-.12328.02047-.25655.02047-.41053-.01023-.28725-.04106-.50286-.15398-.66695-.31807-.13339-.13339-.23608-.30783-.29772-.52333-.0616-.2155-.0821-.44123-.0512-.69777l.69778.05117c-.0102.28725.0307.49251.13339.63614.0714.11281.16397.16398.27713.18468.15397.02093.29772-.04105.41052-.17444.0616-.06164.10258-.16398.12328-.30784.0307-.19491-.0308-.41029-.18468-.63614l-.54392-.70801c-.20514-.26678-.33842-.50275-.41029-.69777-.0714-.22561-.0925-.45146-.0616-.69777.0616-.43088.26689-.73918.5952-.92339.20526-.10257.43111-.14362.69777-.10257.25655.041052.47216.13339.63614.27702.13339.11281.22585.25655.28725.43088.0614.17433.0925.36947.0714.5745l-.70801.020934c.0102-.19503-.0205-.35935-.10257-.48228-.0512-.092455-.14363-.14363-.26678-.16398-.1334-.020468-.2462.020934-.32842.13339-.0714.082105-.11281.19491-.13339.33865-.0308.2155.0308.45146.18467.70801.0616.09246.15398.2155.27714.35935l.28725.34889c.15397.20526.25654.40006.32841.58497.0308.09246.0616.16398.0714.2462.0205.18456.0409.33842.0205.47193zm.86198 1.4264-.71836-.14362.97456-4.7408.71824.14363-.97456 4.7408zm1.5289-.79011-.45146 1.0364-.73918-.18468 2.0009-4.4739.97456.2462-.42076 4.8844-.73917-.19491.1128-1.1185zm1.0261-2.4422-.73918 1.7753.52333.13339.2155-1.9086z" style="fill:#b3b3b3;stroke-width:.1163"/><path d="m427.89 10.904c0 .02047 0 .04105.0102.06164.0102-.03082.0102-.06164.0205-.10257-.0205.01023-.0205.0307-.0307.04105zm-1.9189.51286c-.0923.06164-.15386.12327-.17444.27713.0209.03082.0308.0514.0714.07141.1128-.04094.23608-.22561.15397-.33842-.0209-.01047-.0308-.01047-.0512-.01047zm-1.3339-3.54c-.0512-.020468-.11281-.030818-.16398-.05117-.13339.030818-.29748 0-.45146-.030818-.1128.05117-.22561.11281-.3283.17444.0205.020934.0411.05117.0512.082105-.0205.071406-.0923.14363-.0616.22561.0105.05117.0308.071406.0714.10257.13339.010234.20526-.071406.30783-.10257l.31807-.051171c.12328-.030702.33866-.20515.2562-.34889zm-1.6316 2.5655-.15397-.22561c-.13339-.13339-.26679-.2462-.44123-.28725-.0209.13339-.0308.27702-.0308.42064 0 .47216.11281.92339.32842 1.3134.0308-.03082.0616-.05117.0925-.08211.041-.0714.0923-.14362.13339-.2155.0714-.0714.18467-.09245.2462-.17444.0209-.06164.0512-.13339.0714-.19503.041-.0821.14363-.14362.12327-.25655-.0512-.16398-.25654-.18468-.36935-.29772zm.0616-1.724c.0924-.040936.14362.071405.21549-.010234.0925-.092455-.0307-.24631-.0307-.34889 0-.020934.0102-.05117.0209-.071406-.18468.16398-.33866.35912-.47216.56438.0412-.010234.0821-.010234.11338-.020934.0616-.030702.10234-.071406.15386-.11281zm4.1148-.30783c-.0616 0-.12327 0-.18468.010467-.27713.041053-.55414.082105-.87221.092455-.27714 0-.42076-.22585-.68754-.16398-.10258.020934-.29749.13339-.34889.2155-.0714.11339.0205.18468-.11281.24631-.0924-.020934-.12327-.092455-.20526-.13339-.0714.010234-.10257.030818-.14362.082105-.0102.12327.0821.14363.0821.26678-.0512.071406-.17444.082105-.20526.16398-.041.092339 0 .19491-.0616.26667-.0923.082105-.18468.17444-.26666.2562-.17445.2155-.0925.56427.0409.69777.12328.12327.30784.02093.47216.09246.12304.05117.14363.28725.17445.40006.0616.18468-.0512.26667-.0512.44123s.0616.67731.30783.66696c.27702-.01023.33842-.28725.49251-.47193.0512-.06164.13339-.09245.17445-.18468 0-.09245.0102-.19503.0102-.28725.0616-.16398.2562-.2155.35935-.33865.10257-.11281.0102-.20526.0616-.29772 0 0 .0102 0 .0102-.01023.0821-.05117.16398-.09234.25655-.14362.041-.05117.0821-.10257.12327-.14362l.0924-.03082c.31807.16398.20515.49251.43088.66696.0205-.01023.0307-.02047.0512-.0307.0307-.04105.0102-.08211.0307-.14362.0411-.12327.18467-.24631.33865-.2155.0714.09222.19491.2155.2155.34889.0209.12327-.0616.19491-.0616.29772 0 .07141.041.16398.10257.25655.041-.10257.0714-.2155.0924-.3283 0-.02093 0-.04105-.0102-.06164.0102-.01023.0102-.02047.0205-.04105.0308-.16398.0512-.33865.0512-.5131 0-.73917-.29772-1.4264-.77988-1.9293zm-1.5289 1.2827c-.0616.010234-.12327-.030818-.16397-.05117-.0714-.010234-.15386-.010234-.22562-.020468-.0102 0-.36935-.28725-.3797-.30783.0209-.05117.0411-.05117.0714-.071406.13339.030818.16398.11281.25655.15398l.14363.030818c.0512.041052.10257.071406.15397.11281.0616.030818.14363.030818.19503.041053 0 .010234.0102.020934.0102.030818v.05117c-.0308.010234-.0411.020468-.0616.030702zm-.40029-.071406-.3797-.30783c.0209.020934.36947.30783.3797.30783z" style="fill:#d4db34;stroke-width:.1163"/></g></svg>
