<svg width="1662.6" height="160.04" version="1.1" viewBox="0 0 439.9 42.343" xmlns="http://www.w3.org/2000/svg"><g transform="translate(-1.0583 -254.66)"><g transform="matrix(.26458 0 0 .26458 2.6667e-7 18.569)"><path d="m152 972.36c0 39.763-32.236 71.999-72 71.999-39.765 0-72-32.3-72-72.04 0-39.76 32.234-72 71.999-72 39.761 0 72.001 32.24 72.001 72z" style="fill:#87a556"/><path transform="translate(0,892.36)" d="m80 35.969c-18.131 0-33.733 11.047-40.469 26.75l5.188 3.062c5.61-13.948 19.288-23.75 35.281-23.75 2.057 0 4.068.183 6.031.5v-6.125c-1.974-.274-3.98-.437-6.031-.437zm18.031 3.875-.031 6.718c1 .538 1.963 1.129 2.91 1.75l5.68-3.343c-2.64-2.012-5.5-3.745-8.559-5.125zm-18.031 11.094c-12.629 0-23.43 8.155-27.406 19.468l5.375 3.188c2.759-9.583 11.528-16.563 22.031-16.563 2.077 0 4.087.27 6 .781v-6.218c-1.938-.412-3.946-.656-6-.656zm35.31 2.781-5.22 3.093c4.94 6.406 7.88 14.449 7.88 23.188 0 8.907-3.05 17.067-8.16 23.53l5.22 3.09c5.64-7.395 9-16.632 9-26.62 0-9.834-3.24-18.939-8.72-26.281zm-13.03 7.719-5.28 3.093c3.71 4.078 5.97 9.492 5.97 15.469 0 6.152-2.41 11.679-6.314 15.781l5.344 3.157c4.39-5.097 7.06-11.729 7.06-18.938 0-7.05-2.56-13.516-6.78-18.562zm-65.968 13.281c-.217 1.73-.343 3.491-.343 5.281 0 1.783.135 3.526.343 5.25l5.782-3.406c-.03-.611-.063-1.225-.063-1.844s.033-1.233.063-1.844zm21.657 11.687-5.375 3.156c3.967 11.328 14.767 19.498 27.406 19.498 2.054 0 4.062-.24 6-.65v-6.25c-1.913.5-3.923.78-6 .78-10.503 0-19.272-6.958-22.031-16.534zm-13.25 7.813-5.188 3.062c6.736 15.699 22.338 26.749 40.469 26.749 2.027 0 4.018-.16 5.969-.44v-6.09c-1.946.31-3.932.47-5.969.47-15.993 0-29.671-9.8-35.281-23.751zm55.781 17.751c-.806.52-1.653 1.01-2.5 1.47l-.031 6.72c2.921-1.32 5.681-2.92 8.221-4.82z" style="color:#000000;fill:#ffffff;text-indent:0;text-transform:none"/><path transform="translate(0,892.36)" d="M 92.031,27.469 92,60.531 120,44 Z m -63,36 L 29,96.531 57,80 Z M 92,100 91.969,133.03 119.97,116.5 Z" style="enable-background:new;fill-rule:evenodd;fill:#ffffff"/></g></g><g transform="translate(3.5209e-8 .29482)" style="fill:#b3b3b3" aria-label="Ubuntu MATE Community"><path d="m55.951 31.325q-2.2992 0-3.9898-.71006-1.6906-.71006-2.7726-1.9273-1.082-1.251-1.623-2.9417-.50718-1.6906-.50718-3.6517v-14.708h3.2798v14.336q0 3.5165 1.5554 5.1056 1.5554 1.5892 4.0575 1.5892 1.251 0 2.2654-.37193 1.0482-.40575 1.792-1.2172.74387-.81149 1.1496-2.0625.40575-1.2849.40575-3.0431v-14.336h3.2798v14.708q0 1.9611-.541 3.6517-.50718 1.6906-1.623 2.9417-1.082 1.2172-2.7726 1.9273-1.6568.71006-3.956.71006z" style="fill:#b3b3b3;stroke-width:.8453px"/><path d="m73.432 14.013q.57481-.37193 1.7244-.77768 1.1834-.40575 2.705-.40575 1.8935 0 3.3474.67624 1.4877.67624 2.5021 1.8935t1.5215 2.9078q.541 1.6906.541 3.7193 0 2.1302-.64243 3.8546-.60862 1.6906-1.7582 2.874-1.1496 1.1834-2.7726 1.8259t-3.6517.64243q-2.1978 0-3.8884-.30431-1.6906-.30431-2.7726-.60862v-25.19l3.1445-.54099zm0 14.066q.47337.13525 1.3187.2705.87912.10144 2.164.10144 2.5359 0 4.0575-1.6568 1.5215-1.6906 1.5215-4.7675 0-1.3525-.2705-2.5359-.2705-1.1834-.87912-2.0287-.60862-.87912-1.5892-1.3525-.94674-.50718-2.2992-.50718-1.2849 0-2.3669.43956t-1.6568.91293z" style="fill:#b3b3b3;stroke-width:.8453px"/><path d="m104.2 30.31q-1.082.2705-2.874.57481-1.7582.30431-4.0913.30431-2.0287 0-3.415-.57481-1.3863-.60862-2.2316-1.6906-.8453-1.082-1.2172-2.5359-.37193-1.4877-.37193-3.2798v-9.8732h3.1445v9.1969q0 3.2122 1.0144 4.5985 1.0144 1.3863 3.415 1.3863.50718 0 1.0482-.03381.54099-.03381 1.0144-.06762.47337-.06762.84531-.10144.40574-.06762.5748-.13525v-14.844h3.1445z" style="fill:#b3b3b3;stroke-width:.8453px"/><path d="m109.61 13.743q1.082-.2705 2.874-.57481 1.792-.30431 4.1251-.30431 2.0964 0 3.4826.60862 1.3863.57481 2.1978 1.6568.8453 1.0482 1.1834 2.5359.33812 1.4877.33812 3.2798v9.8732h-3.1445v-9.1969q0-1.623-.23669-2.7726-.20287-1.1496-.71005-1.8597-.50719-.71006-1.3525-1.0144-.8453-.33812-2.0964-.33812-.50719 0-1.0482.03381-.541.03381-1.0482.10144-.47337.03381-.87912.10144-.37193.06763-.54099.10144v14.844h-3.1445z" style="fill:#b3b3b3;stroke-width:.8453px"/><path d="m131.96 13.235h6.661v2.6373h-6.661v8.1149q0 1.3187.20287 2.1978.20287.8453.60862 1.3525.40575.47337 1.0144.67624.60861.20287 1.4201.20287 1.4201 0 2.2654-.30431.87912-.33812 1.2172-.47337l.60862 2.6035q-.47337.23668-1.6568.57481-1.1834.37193-2.705.37193-1.792 0-2.9755-.43956-1.1496-.47337-1.8597-1.3863-.71006-.91293-1.0144-2.2316-.27049-1.3525-.27049-3.1107v-15.689l3.1445-.54099z" style="fill:#b3b3b3;stroke-width:.8453px"/><path d="m156.61 30.31q-1.082.2705-2.874.57481-1.7582.30431-4.0913.30431-2.0287 0-3.415-.57481-1.3863-.60862-2.2316-1.6906-.8453-1.082-1.2172-2.5359-.37194-1.4877-.37194-3.2798v-9.8732h3.1445v9.1969q0 3.2122 1.0144 4.5985 1.0144 1.3863 3.415 1.3863.50718 0 1.0482-.03381.541-.03381 1.0144-.06762.47337-.06762.8453-.10144.40575-.06762.57481-.13525v-14.844h3.1445z" style="fill:#b3b3b3;stroke-width:.8453px"/><path d="m180.55 27.572q-.33813-.81149-.91293-2.0625-.541-1.251-1.1834-2.705t-1.3863-2.9755q-.71005-1.5554-1.3525-2.9078-.64243-1.3863-1.2172-2.4683-.541-1.082-.87912-1.6568-.37193 3.9898-.60862 8.6559-.23668 4.6323-.40574 9.366h-3.2122q.13525-3.0431.30431-6.12.16906-3.1107.37194-6.0862.23668-3.0093.47337-5.8495.27049-2.8402.5748-5.3761h2.874q.91292 1.4877 1.9611 3.5165 1.0482 2.0287 2.0964 4.2603 1.0482 2.1978 2.0287 4.4294.98055 2.1978 1.792 4.0236.81149-1.8259 1.792-4.0236.98055-2.2316 2.0287-4.4294 1.0482-2.2316 2.0964-4.2603 1.0482-2.0287 1.9611-3.5165h2.874q1.1496 11.327 1.7244 23.432h-3.2122q-.16906-4.7337-.40574-9.366-.23669-4.6661-.60862-8.6559-.33812.57481-.91293 1.6568-.54099 1.082-1.1834 2.4683-.64243 1.3525-1.3863 2.9078-.71006 1.5215-1.3525 2.9755t-1.2172 2.705q-.54099 1.251-.87911 2.0625z" style="fill:#b3b3b3;stroke-width:.8453px"/><path d="m215.14 30.818q-.5748-1.5215-1.082-2.9755-.50718-1.4877-1.0482-3.0093h-10.617l-2.1302 5.9848h-3.415q1.3525-3.7193 2.5359-6.8639 1.1834-3.1783 2.2992-6.0186 1.1496-2.8402 2.2654-5.4099 1.1158-2.6035 2.333-5.1394h3.0093q1.2172 2.5359 2.333 5.1394 1.1158 2.5697 2.2316 5.4099 1.1496 2.8402 2.333 6.0186 1.1834 3.1445 2.5359 6.8639zm-3.0769-8.6897q-1.082-2.9417-2.164-5.6804-1.0482-2.7726-2.1978-5.3085-1.1834 2.5359-2.2654 5.3085-1.0482 2.7388-2.0964 5.6804z" style="fill:#b3b3b3;stroke-width:.8453px"/><path d="m235.39 7.3858v2.8402h-7.371v20.592h-3.2798v-20.592h-7.371v-2.8402z" style="fill:#b3b3b3;stroke-width:.8453px"/><path d="m238.84 30.818v-23.432h14.303v2.8064h-11.023v6.9653h9.8055v2.7388h-9.8055v8.1149h11.868v2.8064z" style="fill:#b3b3b3;stroke-width:.8453px"/><path d="m276.03 31.325q-2.4683 0-4.497-.81149t-3.4826-2.3669q-1.4539-1.5554-2.2654-3.8208-.77768-2.2992-.77768-5.2409t.87912-5.2071q.91293-2.2992 2.4345-3.8546 1.5215-1.5554 3.5503-2.3669 2.0287-.81149 4.328-.81149 1.4539 0 2.6035.20287 1.1834.20287 2.0287.47337.87911.2705 1.4201.54099.54099.2705.74386.40575l-.94674 2.705q-.30431-.20287-.87911-.43956-.57481-.23668-1.3187-.47337-.71005-.23668-1.5892-.37193-.8453-.16906-1.7244-.16906-1.8597 0-3.3474.64243-1.4877.64243-2.5359 1.8597-1.0482 1.2172-1.623 2.9755-.54099 1.7244-.54099 3.8884 0 2.0964.47337 3.8208.50718 1.7244 1.4877 2.9755.98055 1.2172 2.4345 1.8935 1.4877.67624 3.4488.67624 2.2654 0 3.7532-.47337 1.4877-.47337 2.2316-.8453l.84531 2.705q-.23669.16906-.84531.43956-.60862.23668-1.5216.47337-.91292.23669-2.1302.40575-1.2172.16906-2.6374.16906z" style="fill:#b3b3b3;stroke-width:.8453px"/><path d="m301.73 22.027q0 2.0964-.60862 3.787-.60862 1.6906-1.7244 2.9078-1.082 1.2172-2.6035 1.8935-1.5216.64243-3.3136.64243-1.792 0-3.3136-.64243-1.5216-.67624-2.6374-1.8935-1.082-1.2172-1.6906-2.9078-.60862-1.6906-.60862-3.787 0-2.0625.60862-3.7532.60862-1.7244 1.6906-2.9417 1.1158-1.2172 2.6374-1.8597 1.5215-.67624 3.3136-.67624 1.792 0 3.3136.67624 1.5216.64243 2.6035 1.8597 1.1158 1.2172 1.7244 2.9417.60862 1.6906.60862 3.7532zm-3.2798 0q0-2.9755-1.3525-4.6999-1.3187-1.7582-3.6179-1.7582t-3.6517 1.7582q-1.3187 1.7244-1.3187 4.6999 0 2.9755 1.3187 4.7337 1.3525 1.7244 3.6517 1.7244t3.6179-1.7244q1.3525-1.7582 1.3525-4.7337z" style="fill:#b3b3b3;stroke-width:.8453px"/><path d="m306.16 13.743q1.082-.2705 2.8402-.57481 1.792-.30431 4.1251-.30431 1.6906 0 2.8402.47337 1.1496.43956 1.9273 1.3187.23668-.16906.74386-.47337.50719-.30431 1.251-.57481.74387-.30431 1.6568-.50718.91293-.23668 1.9611-.23668 2.0287 0 3.3136.60862 1.2849.57481 1.9949 1.6568.74386 1.082.98055 2.5697.2705 1.4877.2705 3.246v9.8732h-3.1445v-9.1969q0-1.5554-.16907-2.6712-.13524-1.1158-.5748-1.8597-.40575-.74387-1.1496-1.082-.71005-.37193-1.8597-.37193-1.5892 0-2.6373.43956-1.0144.40575-1.3863.74387.27049.87912.40574 1.9273t.13525 2.1978v9.8732h-3.1445v-9.1969q0-1.5554-.16906-2.6712-.16906-1.1158-.60862-1.8597-.40575-.74387-1.1496-1.082-.71006-.37193-1.8259-.37193-.47337 0-1.0144.03381-.541.03381-1.0482.10144-.47337.03381-.87912.10144-.40574.06763-.54099.10144v14.844h-3.1445z" style="fill:#b3b3b3;stroke-width:.8453px"/><path d="m335.27 13.743q1.082-.2705 2.8402-.57481 1.792-.30431 4.1251-.30431 1.6906 0 2.8402.47337 1.1496.43956 1.9273 1.3187.23669-.16906.74387-.47337t1.251-.57481q.74387-.30431 1.6568-.50718.91293-.23668 1.9611-.23668 2.0287 0 3.3136.60862 1.2849.57481 1.9949 1.6568.74387 1.082.98055 2.5697.2705 1.4877.2705 3.246v9.8732h-3.1445v-9.1969q0-1.5554-.16906-2.6712-.13525-1.1158-.57481-1.8597-.40575-.74387-1.1496-1.082-.71006-.37193-1.8597-.37193-1.5892 0-2.6374.43956-1.0144.40575-1.3863.74387.2705.87912.40575 1.9273t.13525 2.1978v9.8732h-3.1445v-9.1969q0-1.5554-.16906-2.6712-.16906-1.1158-.60862-1.8597-.40574-.74387-1.1496-1.082-.71006-.37193-1.8259-.37193-.47337 0-1.0144.03381-.541.03381-1.0482.10144-.47337.03381-.87911.10144-.40575.06763-.541.10144v14.844h-3.1445z" style="fill:#b3b3b3;stroke-width:.8453px"/><path d="m378.38 30.31q-1.082.2705-2.874.57481-1.7582.30431-4.0913.30431-2.0287 0-3.415-.57481-1.3863-.60862-2.2316-1.6906-.8453-1.082-1.2172-2.5359-.37193-1.4877-.37193-3.2798v-9.8732h3.1445v9.1969q0 3.2122 1.0144 4.5985 1.0144 1.3863 3.415 1.3863.50719 0 1.0482-.03381.541-.03381 1.0144-.06762.47337-.06762.8453-.10144.40575-.06762.57481-.13525v-14.844h3.1445z" style="fill:#b3b3b3;stroke-width:.8453px"/><path d="m383.79 13.743q1.082-.2705 2.874-.57481 1.792-.30431 4.1251-.30431 2.0964 0 3.4827.60862 1.3863.57481 2.1978 1.6568.8453 1.0482 1.1834 2.5359t.33812 3.2798v9.8732h-3.1445v-9.1969q0-1.623-.23668-2.7726-.20288-1.1496-.71006-1.8597-.50718-.71006-1.3525-1.0144-.84531-.33812-2.0964-.33812-.50718 0-1.0482.03381-.54099.03381-1.0482.10144-.47337.03381-.87912.10144-.37193.06763-.54099.10144v14.844h-3.1445z" style="fill:#b3b3b3;stroke-width:.8453px"/><path d="m406.35 30.818h-3.1445v-17.582h3.1445zm-1.5892-20.761q-.84531 0-1.4539-.54099-.5748-.57481-.5748-1.5215t.5748-1.4877q.60862-.57481 1.4539-.57481.8453 0 1.4201.57481.60862.54099.60862 1.4877t-.60862 1.5215q-.57481.54099-1.4201.54099z" style="fill:#b3b3b3;stroke-width:.8453px"/><path d="m414.7 13.235h6.661v2.6373h-6.661v8.1149q0 1.3187.20287 2.1978.20287.8453.60862 1.3525.40575.47337 1.0144.67624.60861.20287 1.4201.20287 1.4201 0 2.2654-.30431.87912-.33812 1.2172-.47337l.60862 2.6035q-.47337.23668-1.6568.57481-1.1834.37193-2.705.37193-1.792 0-2.9755-.43956-1.1496-.47337-1.8597-1.3863-.71006-.91293-1.0144-2.2316-.27049-1.3525-.27049-3.1107v-15.689l3.1445-.54099z" style="fill:#b3b3b3;stroke-width:.8453px"/><path d="m423.29 34.097q.37193.16906.94674.30431.60862.16906 1.1834.16906 1.8597 0 2.9078-.8453 1.0482-.81149 1.8935-2.6712-2.1302-4.0575-3.9898-8.5883-1.8258-4.5646-3.0431-9.2307h3.3812q.37193 1.5215.87911 3.2798.541 1.7582 1.1834 3.6179t1.3863 3.7193q.74386 1.8597 1.5554 3.5841 1.2849-3.5503 2.2316-7.0329t1.792-7.1682h3.246q-1.2172 4.9704-2.705 9.5688-1.4877 4.5646-3.2122 8.5545-.67624 1.5215-1.4201 2.6035-.71005 1.1158-1.5892 1.8259t-1.9949 1.0482q-1.082.33812-2.4683.33812-.37193 0-.77767-.06762-.40575-.03381-.8115-.13525-.37193-.06762-.71005-.16906-.30431-.10144-.43956-.16906z" style="fill:#b3b3b3;stroke-width:.8453px"/></g></svg>
