<svg version="1.1" viewBox="0 0 264.58 73.375" xmlns="http://www.w3.org/2000/svg"><g transform="translate(260.96 41.214)"><path d="m-260.96-23.352h15.741l9.1658 23.45 9.2848-23.45h15.326l-23.078 55.513h-15.424l6.3173-14.71z" style="fill:#5f01d1"/><path d="m-195.47-24.285c-11.827 0-19.304 10.607-19.304 21.17 0 11.886 8.1972 21.31 19.079 21.31 8.1176 0 11.178-4.9457 11.178-4.9457v3.8526h13.729v-40.453h-13.729v3.6775s-3.4148-4.6113-10.954-4.6113zm2.9203 13c5.457 0 8.2731 4.318 8.2731 8.2142 0 4.1955-3.017 8.3127-8.2731 8.3127-4.3562 0-8.2929-3.56-8.2929-8.1342 0-4.6389 3.1665-8.3928 8.2929-8.3928z" style="fill:#5f01d1"/><path d="m-166.06 17.101v-58.315h14.36v21.68s3.4108-4.7463 10.554-4.7463c8.738 0 13.857 6.5105 13.857 15.814v25.568h-14.255v-22.065c0-3.1484-1.4997-6.1899-4.8968-6.1899-3.458 0-5.2602 3.0876-5.2602 6.1899v22.065z" style="fill:#5f01d1"/><path d="m-102.81-24.28c-13.544 0-21.609 10.299-21.609 21.333 0 12.557 9.7647 21.142 21.66 21.142 11.53 0 21.618-8.1949 21.618-20.931 0-13.936-10.563-21.544-21.67-21.544zm.12933 13.114c4.7842 0 8.0945 3.9848 8.0945 8.234 0 3.6243-3.0846 8.0945-8.0945 8.0945-4.5906 0-8.0357-3.6824-8.0357-8.1342 0-4.2886 2.8642-8.1944 8.0357-8.1944z" style="fill:#5f01d1"/><path d="m-57.213-24.28c-13.544 0-21.609 10.299-21.609 21.333 0 12.557 9.7647 21.142 21.66 21.142 11.53 0 21.618-8.1949 21.618-20.931 0-13.936-10.563-21.544-21.67-21.544zm.12933 13.114c4.7842 0 8.0945 3.9848 8.0945 8.234 0 3.6243-3.0846 8.0945-8.0945 8.0945-4.5906 0-8.0357-3.6824-8.0357-8.1342 0-4.2886 2.8642-8.1944 8.0357-8.1944z" style="fill:#5f01d1"/><circle cx="-24.212" cy="8.4245" r="9.5355" style="fill:#5f01d1"/><path d="m-11.543-4.6137h-17.166l15.235-36.6h17.102z" style="fill:#5f01d1"/></g></svg>
