<svg version="1.1" viewBox="0 0 87.523 26.458" xmlns="http://www.w3.org/2000/svg"><g transform="translate(-66.784 -129.82)"><path d="m94.318 136.29c-.32419-1.2042-1.2736-2.1536-2.4778-2.4778-2.1999-.60208-10.999-.60208-10.999-.60208s-8.7996 0-10.999.57892c-1.181.3242-2.1536 1.2968-2.4778 2.5009-.57892 2.1999-.57892 6.7618-.57892 6.7618s0 4.585.57892 6.7618c.3242 1.2042 1.2736 2.1536 2.4778 2.4778 2.223.60208 10.999.60208 10.999.60208s8.7996 0 10.999-.57892c1.2042-.3242 2.1536-1.2736 2.4778-2.4778.57892-2.1999.57892-6.7618.57892-6.7618s.0232-4.585-.57892-6.7849z" style="fill:#ff0000;stroke-width:.23157"/><path d="m78.038 147.26 7.3175-4.2145-7.3175-4.2145z" style="fill:#ffffff;stroke-width:.23157"/><g transform="matrix(.22753 0 0 .22753 67.617 133.58)" style="fill:#999999"><path class="st2" d="m176.3 77.4c-2.4-1.6-4.1-4.1-5.1-7.6-1-3.4-1.5-8-1.5-13.6v-7.7c0-5.7.6-10.3 1.7-13.8 1.2-3.5 3-6 5.4-7.6 2.5-1.6 5.7-2.4 9.7-2.4 3.9 0 7.1.8 9.5 2.4s4.1 4.2 5.2 7.6 1.7 8 1.7 13.8v7.7c0 5.7-.5 10.2-1.6 13.7-1.1 3.4-2.8 6-5.2 7.6s-5.7 2.4-9.8 2.4c-4.2-.1-7.6-.9-10-2.5zm13.5-8.4c.7-1.7 1-4.6 1-8.5v-16.6c0-3.8-.3-6.6-1-8.4s-1.8-2.6-3.5-2.6c-1.6 0-2.8.9-3.4 2.6-.7 1.8-1 4.6-1 8.4v16.6c0 3.9.3 6.8 1 8.5.6 1.7 1.8 2.6 3.5 2.6 1.6 0 2.7-.8 3.4-2.6zm171.1-12.7v2.7c0 3.4.1 6 .3 7.7s.6 3 1.3 3.7c.6.8 1.6 1.2 3 1.2 1.8 0 3-.7 3.7-2.1s1-3.7 1.1-7l10.3.6c.1.5.1 1.1.1 1.9 0 4.9-1.3 8.6-4 11s-6.5 3.6-11.4 3.6c-5.9 0-10-1.9-12.4-5.6s-3.6-9.4-3.6-17.2v-9.3c0-8 1.2-13.8 3.7-17.5s6.7-5.5 12.6-5.5c4.1 0 7.3.8 9.5 2.3s3.7 3.9 4.6 7c.9 3.2 1.3 7.6 1.3 13.2v9.1h-20.1zm1.5-22.4c-.6.8-1 2-1.2 3.7s-.3 4.3-.3 7.8v3.8h8.8v-3.8c0-3.4-.1-6-.3-7.8s-.7-3-1.3-3.7-1.6-1.1-2.8-1.1c-1.4-.1-2.3.3-2.9 1.1zm-215.3 21.4-13.6-49.3h11.9l4.8 22.3c1.2 5.5 2.1 10.2 2.7 14.1h.3c.4-2.8 1.3-7.4 2.7-14l5-22.4h11.9l-13.8 49.3v23.6h-11.8v-23.6zm94.5-29.6v53.3h-9.4l-1-6.5h-.3c-2.5 4.9-6.4 7.4-11.5 7.4-3.5 0-6.1-1.2-7.8-3.5s-2.5-5.9-2.5-10.9v-39.8h12v39.1c0 2.4.3 4.1.8 5.1s1.4 1.5 2.6 1.5c1 0 2-.3 3-1 1-.6 1.7-1.4 2.1-2.4v-42.3zm61.5 0v53.3h-9.4l-1-6.5h-.3c-2.5 4.9-6.4 7.4-11.5 7.4-3.5 0-6.1-1.2-7.8-3.5s-2.5-5.9-2.5-10.9v-39.8h12v39.1c0 2.4.3 4.1.8 5.1s1.4 1.5 2.6 1.5c1 0 2-.3 3-1 1-.6 1.7-1.4 2.1-2.4v-42.3z" style="fill:#999999"/><path class="st2" d="m274.2 15.7h-11.9v63.2h-11.7v-63.2h-11.9v-9.7h35.5zm68.6 18.5c-.7-3.4-1.9-5.8-3.5-7.3s-3.9-2.3-6.7-2.3c-2.2 0-4.3.6-6.2 1.9-1.9 1.2-3.4 2.9-4.4 4.9h-.1v-28.1h-11.6v75.6h9.9l1.2-5h.3c.9 1.8 2.3 3.2 4.2 4.3 1.9 1 3.9 1.6 6.2 1.6 4.1 0 7-1.9 8.9-5.6s2.9-9.6 2.9-17.5v-8.4c-.1-6.1-.4-10.8-1.1-14.1zm-11 21.7c0 3.9-.2 6.9-.5 9.1s-.9 3.8-1.6 4.7c-.8.9-1.8 1.4-3 1.4-1 0-1.9-.2-2.7-.7s-1.5-1.2-2-2.1v-30.2c.4-1.4 1.1-2.6 2.1-3.6 1-.9 2.1-1.4 3.2-1.4 1.2 0 2.2.5 2.8 1.4.7 1 1.1 2.6 1.4 4.8.3 2.3.4 5.5.4 9.6v7z" style="fill:#999999"/></g></g></svg>
