<svg width="160" height="160" version="1.1" xmlns="http://www.w3.org/2000/svg"><g transform="translate(-8 -884.36)"><g transform="matrix(1.1111 0 0 1.1111 -.88888 -116.04)"><path d="m152 972.36c0 39.763-32.236 71.999-72 71.999-39.765 0-72-32.236-72-71.999 0-39.766 32.234-72.001 71.999-72.001 39.764 0 72.001 32.235 72.001 72.001z" style="fill:#87a556"/><path transform="translate(0 892.36)" d="m80 35.969c-18.131 0-33.733 11.047-40.469 26.75l5.1875 3.0625c5.6107-13.949 19.288-23.75 35.281-23.75 2.0573 0 4.068.18243 6.0312.5v-6.125c-1.9742-.27402-3.98-.4375-6.0312-.4375zm18.031 3.875-.03125 6.7188c.9998.53702 1.963 1.1287 2.9062 1.75l5.6875-3.3438c-2.6428-2.0118-5.5022-3.7446-8.5625-5.125zm-18.031 11.094c-12.629 0-23.43 8.1557-27.406 19.469l5.375 3.1875c2.7592-9.5832 11.528-16.562 22.031-16.562 2.0767 0 4.087.26982 6 .78125v-6.2188c-1.9384-.41175-3.9461-.65625-6-.65625zm35.312 2.7812-5.2188 3.0938c4.9349 6.4058 7.875 14.448 7.875 23.188 0 8.9065-3.0497 17.067-8.1562 23.531l5.2188 3.0938c5.6339-7.3999 9-16.637 9-26.625 0-9.8343-3.2422-18.939-8.7188-26.281zm-13.031 7.7188-5.2812 3.0938c3.708 4.0775 5.9688 9.4916 5.9688 15.469 0 6.1518-2.4063 11.679-6.3125 15.781l5.3438 3.1562c4.3908-5.0962 7.0625-11.728 7.0625-18.938 0-7.0497-2.5619-13.516-6.7812-18.562zm-65.969 13.281c-.21718 1.7298-.34375 3.4909-.34375 5.2812 0 1.7832.13529 3.5255.34375 5.25l5.7812-3.4062c-.02943-.61028-.0625-1.2251-.0625-1.8438s.03307-1.2335.0625-1.8438zm21.656 11.688-5.375 3.1562c3.9676 11.327 14.767 19.5 27.406 19.5 2.0539 0 4.0616-.2445 6-.65625v-6.25c-1.9135.50251-3.9229.78125-6 .78125-10.503 0-19.272-6.9556-22.031-16.531zm-13.25 7.8125-5.1875 3.0625c6.7361 15.703 22.338 26.75 40.469 26.75 2.0267 0 4.0182-.16621 5.9688-.4375v-6.0938c-1.9461.30711-3.9314.46875-5.9688.46875-15.993 0-29.671-9.8014-35.281-23.75zm55.781 17.75c-.80628.51752-1.6533 1.0121-2.5 1.4688l-.03125 6.7188c2.9178-1.3155 5.6781-2.9205 8.2188-4.8125z" style="color:#000000;fill:#ffffff;text-decoration-line:none;text-indent:0;text-transform:none"/><path transform="translate(0 892.36)" d="m92.031 27.469-.03125 33.062 28-16.531zm-63 36-.03125 33.062 28-16.531zm62.969 36.531-.03125 33.031 28-16.531z" style="enable-background:new;fill-rule:evenodd;fill:#ffffff"/></g></g></svg>
